<?xml version="1.0" encoding="UTF-8" standalone="no"?>
<!DOCTYPE svg PUBLIC "-//W3C//DTD SVG 1.1//EN" "http://www.w3.org/Graphics/SVG/1.1/DTD/svg11.dtd">
<svg width="100%" height="100%" viewBox="0 0 460 460" version="1.1" xmlns="http://www.w3.org/2000/svg" xmlns:xlink="http://www.w3.org/1999/xlink" xml:space="preserve" xmlns:serif="http://www.serif.com/" style="fill-rule:evenodd;clip-rule:evenodd;stroke-linejoin:round;stroke-miterlimit:1.41421;">
    <g id="Layer-1" serif:id="Layer 1" transform="matrix(1,0,0,1,-966.898,-646.814)">
        <g transform="matrix(1,0,0,1,1352.52,932.834)">
            <path d="M0,84.045C1.244,82.265 2.582,80.532 3.767,78.805C10.14,69.506 12.7,57.675 10.741,46.574C7.923,30.598 -3.766,16.451 -16.308,6.748C-23.964,0.825 -31.596,-7.852 -22.568,-16.712C-10.092,-28.956 16.021,-1.858 16.03,-1.847C33.986,16.788 41.27,48.324 34.568,72.811C33.285,77.5 31.54,82.063 29.363,86.41C23.68,97.765 18.409,113.001 2.748,107.314C-0.374,106.179 -3.133,101.354 -3.944,98.444C-5.479,92.94 -3.01,88.351 0,84.045" style="fill:rgb(190,206,197);fill-rule:nonzero;"/>
        </g>
        <g transform="matrix(1,0,0,1,1355.63,936.807)">
            <path d="M0,81.89C6.828,72.324 11.712,62.65 11.874,50.61C12.025,39.294 7.766,28.345 1.328,19.172C-1.616,14.976 -4.947,11.048 -8.598,7.45C-12.861,3.246 -17.998,-0.049 -22.077,-4.415C-26.221,-8.848 -28.298,-15.434 -21.783,-19.191C-19.018,-20.786 -15.813,-20.328 -12.889,-19.431C-1.824,-16.033 8.992,-6.203 15.72,3.115C28.231,20.444 33.429,44.277 28.66,65.181C27.165,71.736 24.505,77.767 21.594,83.792C19.528,88.07 17.56,92.636 14.498,96.316C11.386,100.056 6.85,102.196 1.991,100.326C-0.891,99.217 -2.78,96.485 -3.581,93.513C-4.761,89.132 -2.353,85.355 0,81.89C2.612,78.044 -3.628,74.435 -6.222,78.253C-9.689,83.361 -12.278,89.175 -10.529,95.428C-9.127,100.439 -5.641,105.321 -0.622,107.044C9.854,110.64 18.204,104.76 23.418,95.985C36.601,73.799 41.182,49.034 33.741,24.042C28.413,6.148 17.724,-8.542 2.608,-19.261C-3.88,-23.863 -12.4,-28.75 -20.687,-27.174C-31.503,-25.117 -36.411,-12.589 -30.548,-3.554C-26.546,2.611 -20.078,6.452 -14.837,11.437C-8.873,17.109 -3.635,23.623 0.019,31.031C3.678,38.452 5.376,46.696 4.373,54.943C3.275,63.978 -1.048,71.004 -6.222,78.253C-8.92,82.035 -2.674,85.637 0,81.89" style="fill:rgb(27,57,69);fill-rule:nonzero;"/>
        </g>
        <g transform="matrix(-0.871514,-0.490371,-0.490371,0.871514,1353.59,1003.39)">
            <path d="M-36.361,-3.95L-0.802,-3.95L-1.036,9.528L-36.594,9.527L-36.361,-3.95Z" style="fill:rgb(208,239,229);fill-rule:nonzero;"/>
        </g>
        <g transform="matrix(1,0,0,1,1389.03,1015.32)">
            <path d="M0,-0.647C-10.331,-6.459 -20.661,-12.271 -30.991,-18.083C-32.644,-19.013 -34.981,-18.528 -35.92,-16.791C-38.056,-12.837 -40.191,-8.884 -42.327,-4.93C-43.24,-3.24 -42.778,-0.983 -41.034,-0.001C-30.704,5.811 -20.374,11.624 -10.044,17.435C-8.392,18.366 -6.054,17.88 -5.115,16.143C-2.979,12.189 -0.844,8.236 1.292,4.283C3.496,0.203 -2.723,-3.44 -4.93,0.646C-7.065,4.599 -9.201,8.552 -11.337,12.506C-9.693,12.075 -8.051,11.644 -6.407,11.213C-16.737,5.401 -27.067,-0.411 -37.397,-6.223C-36.967,-4.58 -36.536,-2.937 -36.105,-1.293C-33.97,-5.248 -31.834,-9.201 -29.698,-13.154C-31.342,-12.723 -32.984,-12.293 -34.628,-11.861C-24.298,-6.049 -13.968,-0.237 -3.638,5.575C0.409,7.852 4.046,1.629 0,-0.647" style="fill:rgb(27,57,69);fill-rule:nonzero;"/>
        </g>
        <g transform="matrix(1,0,0,1,1146.58,932.834)">
            <path d="M0,84.045C-1.245,82.265 -2.582,80.532 -3.767,78.805C-10.14,69.506 -12.7,57.675 -10.742,46.574C-7.923,30.598 3.766,16.451 16.308,6.748C23.964,0.825 31.596,-7.852 22.568,-16.712C10.092,-28.956 -16.021,-1.858 -16.031,-1.847C-33.986,16.788 -41.27,48.324 -34.569,72.811C-33.286,77.5 -31.54,82.063 -29.364,86.41C-23.68,97.765 -18.409,113.001 -2.749,107.314C0.374,106.179 3.133,101.354 3.944,98.444C5.479,92.94 3.01,88.351 0,84.045" style="fill:rgb(190,206,197);fill-rule:nonzero;"/>
        </g>
        <g transform="matrix(1,0,0,1,1149.69,938.415)">
            <path d="M0,76.646C-4.285,70.642 -8.121,64.905 -9.838,57.612C-11.6,50.126 -11.071,42.381 -8.608,35.119C-3.74,20.76 7.117,11.362 18.142,1.756C22.368,-1.926 26.634,-6.864 27.086,-12.703C27.516,-18.263 24.22,-23.844 19.556,-26.785C12.508,-31.229 3.844,-28.344 -2.85,-24.66C-17.9,-16.376 -29.832,-2.804 -36.518,12.926C-41.518,24.688 -44.071,37.611 -43.706,50.403C-43.324,63.781 -39.045,75.536 -33.255,87.447C-28.604,97.015 -22.17,107.875 -9.881,106.386C-3.563,105.622 0.727,102.183 3.314,96.414C6.47,89.375 4.113,82.703 0,76.646C-2.59,72.832 -8.836,76.433 -6.222,80.283C-2.742,85.408 -0.247,91.944 -5.465,97.028C-8.926,100.401 -14.864,99.952 -18.458,97.021C-21.603,94.456 -23.602,90.597 -25.424,87.062C-28.02,82.025 -30.679,76.828 -32.568,71.49C-39.836,50.956 -36.858,27.079 -26.225,8.223C-19.879,-3.03 -9.816,-12.91 1.677,-18.917C7.578,-22.001 19.329,-24.532 19.947,-14.035C20.287,-8.261 13.293,-3.545 9.438,-0.427C4.908,3.238 0.676,7.262 -3.067,11.734C-10.833,21.013 -16.704,31.99 -17.893,44.182C-19.23,57.911 -13.989,69.4 -6.222,80.283C-3.551,84.026 2.702,80.431 0,76.646" style="fill:rgb(27,57,69);fill-rule:nonzero;"/>
        </g>
        <g transform="matrix(0.871514,-0.490371,-0.490371,-0.871514,1115.65,1026.59)">
            <path d="M1.035,9.527L36.594,9.527L36.361,-3.951L0.803,-3.95L1.035,9.527Z" style="fill:rgb(208,239,229);fill-rule:nonzero;"/>
        </g>
        <g transform="matrix(1,0,0,1,1113.7,1009.09)">
            <path d="M0,11.798C10.33,5.986 20.66,0.174 30.99,-5.638C29.347,-6.069 27.704,-6.5 26.061,-6.931C28.196,-2.977 30.332,0.976 32.468,4.93C32.898,3.286 33.33,1.644 33.76,0C23.43,5.813 13.1,11.624 2.77,17.437C4.413,17.867 6.056,18.298 7.699,18.73C5.563,14.776 3.428,10.822 1.292,6.869C-0.913,2.787 -7.136,6.422 -4.93,10.506C-2.794,14.459 -0.658,18.412 1.478,22.366C2.413,24.098 4.754,24.588 6.407,23.658C16.737,17.847 27.067,12.034 37.397,6.222C39.133,5.245 39.604,2.985 38.689,1.293C36.554,-2.661 34.418,-6.614 32.283,-10.567C31.347,-12.299 29.006,-12.79 27.354,-11.86C17.023,-6.048 6.693,-0.235 -3.637,5.576C-7.679,7.851 -4.05,14.077 0,11.798" style="fill:rgb(27,57,69);fill-rule:nonzero;"/>
        </g>
        <g transform="matrix(-1,-0,0,1,2491.53,-224.481)">
            <rect x="1215.36" y="1088.8" width="62.792" height="49.724" style="fill:rgb(208,239,229);"/>
        </g>
        <g transform="matrix(1,0,0,1,1279.41,886.305)">
            <path d="M0,40.508L-62.792,40.508C-61.451,41.85 -60.108,43.192 -58.767,44.534L-58.767,-5.19C-60.108,-3.848 -61.451,-2.506 -62.792,-1.163L0,-1.163C-1.342,-2.506 -2.684,-3.848 -4.026,-5.19L-4.026,44.534C-4.026,49.716 4.026,49.724 4.026,44.534L4.026,-5.19C4.026,-7.367 2.182,-9.216 0,-9.216L-62.792,-9.216C-64.969,-9.216 -66.819,-7.371 -66.819,-5.19L-66.819,44.534C-66.819,46.711 -64.974,48.56 -62.792,48.56L0,48.56C5.182,48.56 5.19,40.508 0,40.508" style="fill:rgb(27,57,69);fill-rule:nonzero;"/>
        </g>
        <g transform="matrix(1,0,0,1,1258.13,911.951)">
            <path d="M0,-30.719L0,0C0,5.181 8.053,5.19 8.053,0L8.053,-30.719C8.053,-35.901 0,-35.909 0,-30.719" style="fill:rgb(230,255,245);fill-rule:nonzero;"/>
        </g>
        <g transform="matrix(-1,-0,0,1,2398.96,95.4889)">
            <rect x="1184.17" y="917.874" width="32.606" height="71.604" style="fill:rgb(190,206,197);"/>
        </g>
        <g transform="matrix(1,0,0,1,1214.79,1018.55)">
            <path d="M0,62.387L-32.606,62.387C-31.265,63.729 -29.922,65.072 -28.58,66.413L-28.58,-5.191C-29.922,-3.848 -31.265,-2.507 -32.606,-1.165L0,-1.165C-1.342,-2.507 -2.684,-3.848 -4.026,-5.191L-4.026,66.413C-4.026,71.595 4.026,71.604 4.026,66.413L4.026,-5.191C4.026,-7.367 2.182,-9.217 0,-9.217L-32.606,-9.217C-34.783,-9.217 -36.633,-7.373 -36.633,-5.191L-36.633,66.413C-36.633,68.59 -34.788,70.44 -32.606,70.44L0,70.44C5.182,70.44 5.19,62.387 0,62.387" style="fill:rgb(27,57,69);fill-rule:nonzero;"/>
        </g>
        <g transform="matrix(-1,-0,0,1,2398.96,118.902)">
            <rect x="1184.17" y="938.014" width="32.606" height="7.911" style="fill:rgb(190,206,197);"/>
        </g>
        <g transform="matrix(1,0,0,1,1214.79,1062.11)">
            <path d="M0,-1.306L-32.606,-1.306C-31.265,0.037 -29.922,1.379 -28.58,2.72L-28.58,-5.191C-29.922,-3.849 -31.265,-2.507 -32.606,-1.165L0,-1.165C-1.342,-2.507 -2.684,-3.849 -4.026,-5.191L-4.026,2.72C-4.026,7.902 4.026,7.911 4.026,2.72L4.026,-5.191C4.026,-7.368 2.182,-9.217 0,-9.217L-32.606,-9.217C-34.783,-9.217 -36.633,-7.372 -36.633,-5.191L-36.633,2.72C-36.633,4.897 -34.788,6.747 -32.606,6.747L0,6.747C5.182,6.747 5.19,-1.306 0,-1.306" style="fill:rgb(27,57,69);fill-rule:nonzero;"/>
        </g>
        <g transform="matrix(0.459942,-0.887949,-0.887949,-0.459942,1225.03,1038.27)">
            <path d="M-30.561,-26.167C-19.301,-18.529 -15.237,-3.396 -21.641,8.968L-30.561,26.189C-36.966,38.554 -51.671,43.965 -64.406,39.172L-30.561,-26.167Z" style="fill:rgb(190,206,197);fill-rule:nonzero;"/>
        </g>
        <g transform="matrix(1,0,0,1,1238.09,1056.11)">
            <path d="M0,20.258C-1.542,9.557 -8.528,0.238 -18.453,-4.12C-25.582,-7.249 -33.093,-6.779 -40.675,-6.779C-48.258,-6.779 -55.77,-7.25 -62.898,-4.12C-72.825,0.239 -79.809,9.554 -81.351,20.258C-81.716,22.794 -80.345,25.355 -77.468,25.355L-3.883,25.355C1.299,25.355 1.308,17.302 -3.883,17.302L-77.468,17.302C-76.174,19 -74.88,20.699 -73.586,22.399C-72.253,13.147 -66.436,5.207 -57.314,2.337C-52.056,0.683 -46.12,1.274 -40.675,1.274C-35.463,1.274 -29.739,0.703 -24.678,2.155C-15.24,4.863 -9.136,12.881 -7.765,22.399C-7.029,27.508 0.731,25.335 0,20.258" style="fill:rgb(27,57,69);fill-rule:nonzero;"/>
        </g>
        <g transform="matrix(-1,-0,0,1,2597.31,94.6489)">
            <rect x="1283.34" y="917.874" width="32.606" height="72.444" style="fill:rgb(190,206,197);"/>
        </g>
        <g transform="matrix(1,0,0,1,1313.97,1017.71)">
            <path d="M0,63.226L-32.606,63.226C-31.265,64.568 -29.923,65.911 -28.58,67.252L-28.58,-5.192L-32.606,-1.166L0,-1.166L-4.026,-5.192L-4.026,67.252C-4.026,72.434 4.026,72.443 4.026,67.252L4.026,-5.192C4.026,-7.368 2.182,-9.217 0,-9.217L-32.606,-9.217C-34.783,-9.217 -36.633,-7.374 -36.633,-5.192L-36.633,67.252C-36.633,69.429 -34.788,71.279 -32.606,71.279L0,71.279C5.182,71.279 5.19,63.226 0,63.226" style="fill:rgb(27,57,69);fill-rule:nonzero;"/>
        </g>
        <g transform="matrix(-1,-0,0,1,2597.31,118.902)">
            <rect x="1283.34" y="938.014" width="32.606" height="7.911" style="fill:rgb(190,206,197);"/>
        </g>
        <g transform="matrix(1,0,0,1,1313.97,1062.11)">
            <path d="M0,-1.306L-32.606,-1.306C-31.265,0.037 -29.923,1.379 -28.58,2.72L-28.58,-5.191C-29.923,-3.849 -31.265,-2.507 -32.606,-1.165L0,-1.165C-1.342,-2.507 -2.684,-3.849 -4.026,-5.191L-4.026,2.72C-4.026,7.902 4.026,7.911 4.026,2.72L4.026,-5.191C4.026,-7.368 2.182,-9.217 0,-9.217L-32.606,-9.217C-34.783,-9.217 -36.633,-7.372 -36.633,-5.191L-36.633,2.72C-36.633,4.897 -34.788,6.747 -32.606,6.747L0,6.747C5.182,6.747 5.19,-1.306 0,-1.306" style="fill:rgb(27,57,69);fill-rule:nonzero;"/>
        </g>
        <g transform="matrix(0.459942,-0.887949,-0.887949,-0.459942,1324.21,1038.27)">
            <path d="M-30.562,-26.168C-19.301,-18.53 -15.237,-3.397 -21.641,8.967L-30.562,26.189C-36.966,38.553 -51.672,43.964 -64.407,39.173L-30.562,-26.168Z" style="fill:rgb(190,206,197);fill-rule:nonzero;"/>
        </g>
        <g transform="matrix(1,0,0,1,1337.27,1056.11)">
            <path d="M0,20.258C-1.542,9.557 -8.527,0.238 -18.453,-4.12C-25.582,-7.249 -33.093,-6.779 -40.676,-6.779C-48.258,-6.779 -55.77,-7.25 -62.897,-4.12C-72.825,0.239 -79.809,9.554 -81.351,20.258C-81.717,22.794 -80.345,25.355 -77.469,25.355L-3.883,25.355C1.299,25.355 1.308,17.302 -3.883,17.302L-77.469,17.302C-76.175,19 -74.88,20.699 -73.586,22.399C-72.253,13.147 -66.437,5.207 -57.313,2.337C-52.056,0.683 -46.12,1.274 -40.676,1.274C-35.464,1.274 -29.739,0.703 -24.678,2.155C-15.239,4.863 -9.137,12.881 -7.766,22.399C-7.029,27.508 0.731,25.335 0,20.258" style="fill:rgb(27,57,69);fill-rule:nonzero;"/>
        </g>
        <g transform="matrix(1,0,0,1,1189.2,1091.77)">
            <path d="M0,-19.472L-9.117,-19.472L-21.777,-19.472L-30.894,-19.472L-30.894,0L47.323,0L47.323,-1.718L47.323,-19.472L36.035,-19.472L0,-19.472Z" style="fill:rgb(190,206,197);fill-rule:nonzero;"/>
        </g>
        <g transform="matrix(1,0,0,1,1189.2,1095.8)">
            <path d="M0,-27.524L-30.894,-27.524C-33.071,-27.524 -34.92,-25.679 -34.92,-23.498L-34.92,-4.026C-34.92,-1.849 -33.076,0 -30.894,0L47.323,0C49.5,0 51.35,-1.844 51.35,-4.026L51.35,-23.498C51.35,-25.674 49.505,-27.524 47.323,-27.524L0,-27.524C-5.182,-27.524 -5.19,-19.471 0,-19.471L47.323,-19.471C45.981,-20.814 44.639,-22.156 43.297,-23.498L43.297,-4.026C44.639,-5.368 45.981,-6.711 47.323,-8.052L-30.894,-8.052C-29.552,-6.711 -28.21,-5.368 -26.868,-4.026L-26.868,-23.498C-28.21,-22.156 -29.552,-20.814 -30.894,-19.471L0,-19.471C5.182,-19.471 5.19,-27.524 0,-27.524" style="fill:rgb(27,57,69);fill-rule:nonzero;"/>
        </g>
        <g transform="matrix(1,0,0,1,1324.41,1091.77)">
            <path d="M0,-19.472L-36.034,-19.472L-45.152,-19.472L-57.812,-19.472L-66.929,-19.472L-66.929,0L11.288,0L11.288,-1.718L11.288,-19.472L0,-19.472Z" style="fill:rgb(190,206,197);fill-rule:nonzero;"/>
        </g>
        <g transform="matrix(1,0,0,1,1324.41,1095.8)">
            <path d="M0,-27.524L-66.929,-27.524C-69.105,-27.524 -70.955,-25.679 -70.955,-23.498L-70.955,-4.026C-70.955,-1.849 -69.11,0 -66.929,0L11.288,0C13.465,0 15.314,-1.844 15.314,-4.026L15.314,-23.498C15.314,-25.674 13.47,-27.524 11.288,-27.524L0,-27.524C-5.181,-27.524 -5.189,-19.471 0,-19.471L11.288,-19.471C9.946,-20.814 8.604,-22.156 7.262,-23.498L7.262,-4.026C8.604,-5.368 9.946,-6.711 11.288,-8.052L-66.929,-8.052L-62.902,-4.026L-62.902,-23.498C-64.244,-22.156 -65.587,-20.814 -66.929,-19.471L0,-19.471C5.182,-19.471 5.19,-27.524 0,-27.524" style="fill:rgb(27,57,69);fill-rule:nonzero;"/>
        </g>
        <g transform="matrix(1,0,0,1,1361.77,740.849)">
            <path d="M0,140.383L-234.001,140.383C-244.064,140.383 -252.222,132.225 -252.222,122.162L-252.222,18.221C-252.222,8.158 -244.064,0 -234.001,0L0,0C10.063,0 18.221,8.158 18.221,18.221L18.221,122.162C18.221,132.225 10.063,140.383 0,140.383" style="fill:rgb(190,206,197);fill-rule:nonzero;"/>
        </g>
        <g transform="matrix(1,0,0,1,1361.77,745.248)">
            <path d="M0,131.958L-50.461,131.958L-151.441,131.958L-227.339,131.958C-229.389,131.958 -231.448,132.014 -233.498,131.958C-241.67,131.732 -247.872,126.065 -248.196,117.75C-248.562,108.355 -248.196,98.873 -248.196,89.473L-248.196,38.578L-248.196,19.935C-248.196,16.593 -248.555,12.857 -247.568,9.631C-244.336,-0.933 -234.31,-0.372 -225.623,-0.372L-12.104,-0.372C-6.724,-0.372 0.559,-1.41 5.649,0.771C17.075,5.668 14.194,21.605 14.194,31.588C14.194,59.901 14.413,88.224 14.194,116.537C14.13,124.91 8.741,131.637 0,131.958C-5.167,132.148 -5.191,140.201 0,140.01C12.015,139.569 21.626,130.596 22.222,118.443C22.368,115.473 22.247,112.472 22.247,109.5L22.247,61.799L22.247,18.073C22.247,12.806 22.079,7.758 19.421,2.965C15.394,-4.299 7.774,-8.23 -0.357,-8.425C-20.781,-8.914 -41.276,-8.425 -61.704,-8.425L-167.798,-8.425C-189.526,-8.425 -211.266,-8.635 -232.993,-8.425C-247.156,-8.288 -256.249,2.288 -256.249,16.026L-256.249,106.107C-256.249,109.884 -256.342,113.674 -256.249,117.449C-256.004,127.357 -250.012,136.168 -240.334,139.095C-234.458,140.872 -227.222,140.01 -221.178,140.01L0,140.01C5.181,140.01 5.189,131.958 0,131.958" style="fill:rgb(27,57,69);fill-rule:nonzero;"/>
        </g>
        <g transform="matrix(1,0,0,1,1342.81,756.923)">
            <path d="M0,108.234L-196.066,108.234C-206.129,108.234 -214.287,100.076 -214.287,90.013L-214.287,18.221C-214.287,8.158 -206.129,0 -196.066,0L0,0C10.063,0 18.222,8.158 18.222,18.221L18.222,90.013C18.222,100.076 10.063,108.234 0,108.234" style="fill:rgb(208,239,229);fill-rule:nonzero;"/>
        </g>
        <g transform="matrix(1,0,0,1,1342.81,761.158)">
            <path d="M0,99.973L-120.291,99.973L-186.229,99.973C-190.32,99.973 -194.941,100.51 -198.99,99.678C-212.092,96.984 -210.261,83.015 -210.261,73.029L-210.261,33.492L-210.261,18.002C-210.261,13.806 -210.385,9.798 -207.875,6.098C-203.389,-0.515 -196.533,-0.208 -189.646,-0.208L-15.554,-0.208C-10.521,-0.208 -5.455,-0.378 -0.425,-0.208C5.951,0.007 11.604,3.483 13.567,9.795C14.499,12.788 14.195,16.2 14.195,19.305C14.195,41.28 14.88,63.367 14.195,85.331C13.941,93.461 8.302,99.668 0,99.973C-5.166,100.163 -5.191,108.217 0,108.026C9.802,107.665 18.437,101.671 21.332,92.111C22.426,88.5 22.248,84.723 22.248,81.002L22.248,41.964C22.248,32.661 22.546,23.305 22.248,14.005C21.819,0.628 11.399,-8.182 -1.568,-8.261C-48.959,-8.547 -96.36,-8.261 -143.751,-8.261C-160.919,-8.261 -178.101,-8.452 -195.269,-8.261C-208.286,-8.115 -218.14,1.561 -218.313,14.627C-218.456,25.379 -218.313,36.142 -218.313,46.894L-218.313,83.112C-218.313,96.505 -210.126,107.577 -195.959,108.026C-180.35,108.52 -164.645,108.026 -149.031,108.026L0,108.026C5.182,108.026 5.19,99.973 0,99.973" style="fill:rgb(27,57,69);fill-rule:nonzero;"/>
        </g>
        <g transform="matrix(1,0,0,1,1205.96,804.085)">
            <path d="M0,0C0,10.308 -8.356,18.664 -18.664,18.664C-28.972,18.664 -37.328,10.308 -37.328,0C-37.328,-10.308 -28.972,-18.664 -18.664,-18.664C-8.356,-18.664 0,-10.308 0,0" style="fill:rgb(27,57,69);fill-rule:nonzero;"/>
        </g>
        <g transform="matrix(1,0,0,1,1320.91,804.085)">
            <path d="M0,0C0,10.308 -8.355,18.664 -18.663,18.664C-28.972,18.664 -37.327,10.308 -37.327,0C-37.327,-10.308 -28.972,-18.664 -18.663,-18.664C-8.355,-18.664 0,-10.308 0,0" style="fill:rgb(27,57,69);fill-rule:nonzero;"/>
        </g>
        <g transform="matrix(1,0,0,1,1303.54,799.084)">
            <path d="M0,0C0,2.705 -2.193,4.898 -4.898,4.898C-7.604,4.898 -9.796,2.705 -9.796,0C-9.796,-2.705 -7.604,-4.898 -4.898,-4.898C-2.193,-4.898 0,-2.705 0,0" style="fill:white;fill-rule:nonzero;"/>
        </g>
        <g transform="matrix(1,0,0,1,1305.52,807.504)">
            <path d="M0,0C0,0.882 -0.715,1.597 -1.597,1.597C-2.479,1.597 -3.194,0.882 -3.194,0C-3.194,-0.882 -2.479,-1.597 -1.597,-1.597C-0.715,-1.597 0,-0.882 0,0" style="fill:white;fill-rule:nonzero;"/>
        </g>
        <g transform="matrix(1,0,0,1,1186.08,799.084)">
            <path d="M0,0C0,2.705 -2.193,4.898 -4.898,4.898C-7.603,4.898 -9.796,2.705 -9.796,0C-9.796,-2.705 -7.603,-4.898 -4.898,-4.898C-2.193,-4.898 0,-2.705 0,0" style="fill:white;fill-rule:nonzero;"/>
        </g>
        <g transform="matrix(1,0,0,1,1188.06,807.504)">
            <path d="M0,0C0,0.882 -0.715,1.597 -1.597,1.597C-2.479,1.597 -3.194,0.882 -3.194,0C-3.194,-0.882 -2.479,-1.597 -1.597,-1.597C-0.715,-1.597 0,-0.882 0,0" style="fill:white;fill-rule:nonzero;"/>
        </g>
        <g transform="matrix(1,0,0,1,1244.77,822.744)">
            <path d="M0,23.736C-15.327,23.736 -27.332,15.206 -27.332,4.316C-27.332,1.932 -25.399,0 -23.017,0C-20.634,0 -18.701,1.932 -18.701,4.316C-18.701,10.063 -9.963,15.105 0,15.105C9.962,15.105 18.701,10.063 18.701,4.316C18.701,1.932 20.633,0 23.016,0C25.399,0 27.332,1.932 27.332,4.316C27.332,15.206 15.327,23.736 0,23.736" style="fill:rgb(27,57,69);fill-rule:nonzero;"/>
        </g>
        <g transform="matrix(1,0,0,1,1335.25,908.014)">
            <path d="M0,113.81L-172.476,113.81L-188.852,5.42L-184.246,0L11.771,0L16.376,5.42L0,113.81Z" style="fill:rgb(190,206,197);fill-rule:nonzero;"/>
        </g>
        <g transform="matrix(1,0,0,1,1335.25,913.484)">
            <path d="M0,104.314L-58.229,104.314L-151.092,104.314L-172.476,104.314C-171.182,105.299 -169.887,106.285 -168.593,107.27C-173.369,75.663 -178.145,44.055 -182.92,12.447C-183.603,7.925 -184.286,3.403 -184.97,-1.12C-185.315,0.186 -185.66,1.492 -186.005,2.798L-181.399,-2.622C-182.348,-2.229 -183.297,-1.836 -184.246,-1.443L11.771,-1.443L8.923,-2.622C10.458,-0.815 11.994,0.991 13.529,2.798C13.184,1.492 12.839,0.186 12.494,-1.12C7.718,30.488 2.942,62.095 -1.833,93.703C-2.517,98.225 -3.199,102.748 -3.883,107.27C-4.648,112.339 3.109,114.526 3.882,109.411C8.675,77.69 13.468,45.969 18.26,14.249C18.914,9.923 19.871,5.53 20.236,1.168C20.592,-3.081 15.345,-9.192 11.041,-9.496C0.872,-10.212 -9.609,-9.496 -19.797,-9.496L-139.797,-9.496L-179.784,-9.496C-183.05,-9.496 -185.499,-9.945 -187.934,-7.327C-190.241,-4.847 -193.011,-2.325 -192.706,1.209C-192.585,2.611 -192.281,4.022 -192.071,5.413C-186.978,39.125 -181.884,72.838 -176.791,106.55C-176.646,107.504 -176.502,108.458 -176.358,109.411C-176.099,111.128 -174.089,112.367 -172.476,112.367L0,112.367C5.182,112.367 5.189,104.314 0,104.314" style="fill:rgb(27,57,69);fill-rule:nonzero;"/>
        </g>
        <g transform="matrix(1,0,0,1,1289.69,809.386)">
            <path d="M0,-35.436L17.486,-35.436C23.353,-35.436 30.122,-36.38 35.918,-35.141C46.045,-32.975 47.188,-23.841 47.188,-15.308L47.188,3.881C47.188,9.062 55.241,9.071 55.241,3.881C55.241,-11.259 59.366,-33.183 42.707,-41.246C35.968,-44.507 27.694,-43.489 20.422,-43.489L0,-43.489C-5.182,-43.489 -5.19,-35.436 0,-35.436" style="fill:rgb(230,255,245);fill-rule:nonzero;"/>
        </g>
        <g transform="matrix(1,0,0,1,1272.77,766.355)">
            <path d="M0,8.053L5.807,8.053C7.912,8.053 9.93,6.201 9.833,4.027C9.735,1.845 8.063,0 5.807,0L0,0C-2.105,0 -4.123,1.852 -4.026,4.027C-3.928,6.208 -2.257,8.053 0,8.053" style="fill:rgb(230,255,245);fill-rule:nonzero;"/>
        </g>
        <g transform="matrix(1,0,0,1,1181.45,1000.43)">
            <path d="M0,-71.018L0,-55.453L-4.864,-55.453L-4.864,-51.075L0,-51.075L0,-20.43L-4.864,-20.43L-4.864,-16.052L0,-16.052L0,0L76.854,0L76.854,-71.018L0,-71.018Z" style="fill:rgb(27,57,69);fill-rule:nonzero;"/>
        </g>
        <g transform="matrix(1,0,0,1,1179.43,999.847)">
            <path d="M0,-70.436L0,-54.871C0.671,-55.541 1.342,-56.212 2.013,-56.883L-2.851,-56.883C-3.939,-56.883 -4.864,-55.961 -4.864,-54.871L-4.864,-50.493C-4.864,-49.404 -3.942,-48.479 -2.851,-48.479L2.013,-48.479L0,-50.493L0,-19.848L2.013,-21.861L-2.851,-21.861C-3.939,-21.861 -4.864,-20.939 -4.864,-19.848L-4.864,-15.47C-4.864,-14.382 -3.942,-13.457 -2.851,-13.457L2.013,-13.457C1.342,-14.128 0.671,-14.799 0,-15.47L0,0.582C0,1.67 0.922,2.595 2.013,2.595L78.867,2.595C79.956,2.595 80.881,1.672 80.881,0.582L80.881,-70.436C80.881,-71.524 79.958,-72.449 78.867,-72.449L2.013,-72.449C-0.578,-72.449 -0.582,-68.423 2.013,-68.423L78.867,-68.423C78.196,-69.094 77.525,-69.765 76.854,-70.436L76.854,0.582C77.525,-0.089 78.196,-0.761 78.867,-1.432L2.013,-1.432C2.684,-0.761 3.355,-0.089 4.026,0.582L4.026,-15.47C4.026,-16.559 3.104,-17.483 2.013,-17.483L-2.851,-17.483C-2.18,-16.812 -1.509,-16.142 -0.838,-15.47L-0.838,-19.848L-2.851,-17.835L2.013,-17.835C3.102,-17.835 4.026,-18.757 4.026,-19.848L4.026,-50.493C4.026,-51.581 3.104,-52.506 2.013,-52.506L-2.851,-52.506C-2.18,-51.834 -1.509,-51.164 -0.838,-50.493L-0.838,-54.871C-1.509,-54.199 -2.18,-53.528 -2.851,-52.857L2.013,-52.857C3.102,-52.857 4.026,-53.78 4.026,-54.871L4.026,-70.436C4.026,-73.026 0,-73.031 0,-70.436" style="fill:rgb(27,57,69);fill-rule:nonzero;"/>
        </g>
        <g transform="matrix(1,0,0,1,1256.36,931.356)">
            <path d="M0,67.126L-72.963,67.126L-72.963,53.02L-68.585,53.02L-68.585,48.642L-72.963,48.642L-72.963,17.998L-68.585,17.998L-68.585,13.62L-72.963,13.62L-72.963,0L0,0L0,67.126Z" style="fill:rgb(208,239,229);fill-rule:nonzero;"/>
        </g>
        <g transform="matrix(1,0,0,1,1256.36,936.546)">
            <path d="M0,57.91L-72.963,57.91C-71.621,59.252 -70.279,60.595 -68.937,61.936L-68.937,47.83C-70.279,49.172 -71.621,50.514 -72.963,51.857L-68.585,51.857C-66.409,51.857 -64.559,50.012 -64.559,47.83L-64.559,43.452C-64.559,41.276 -66.404,39.426 -68.585,39.426L-72.963,39.426C-71.621,40.768 -70.279,42.11 -68.937,43.452L-68.937,12.808C-70.279,14.15 -71.621,15.492 -72.963,16.834L-68.585,16.834C-66.409,16.834 -64.559,14.99 -64.559,12.808L-64.559,8.43C-64.559,6.254 -66.404,4.404 -68.585,4.404L-72.963,4.404L-68.937,8.43L-68.937,-5.19C-70.279,-3.847 -71.621,-2.506 -72.963,-1.163L0,-1.163C-1.342,-2.506 -2.685,-3.847 -4.026,-5.19L-4.026,61.936C-4.026,67.118 4.026,67.126 4.026,61.936L4.026,-5.19C4.026,-7.366 2.182,-9.216 0,-9.216L-72.963,-9.216C-75.14,-9.216 -76.989,-7.371 -76.989,-5.19L-76.989,8.43C-76.989,10.607 -75.145,12.456 -72.963,12.456L-68.585,12.456L-72.612,8.43L-72.612,12.808C-71.27,11.466 -69.927,10.124 -68.585,8.782L-72.963,8.782C-75.14,8.782 -76.989,10.626 -76.989,12.808L-76.989,43.452C-76.989,45.629 -75.145,47.479 -72.963,47.479L-68.585,47.479C-69.927,46.137 -71.27,44.795 -72.612,43.452L-72.612,47.83L-68.585,43.804L-72.963,43.804C-75.14,43.804 -76.989,45.649 -76.989,47.83L-76.989,61.936C-76.989,64.113 -75.145,65.963 -72.963,65.963L0,65.963C5.182,65.963 5.19,57.91 0,57.91" style="fill:rgb(27,57,69);fill-rule:nonzero;"/>
        </g>
        <g transform="matrix(1,0,0,1,1217.19,964.375)">
            <path d="M0,-16.251C5.863,-16.251 12.071,-16.883 17.894,-16.251C26.273,-15.341 23.749,-2.741 23.749,3.229C23.749,8.411 31.802,8.419 31.802,3.229C31.802,-5.519 33.875,-17.161 24.913,-22.405C21.042,-24.67 16.641,-24.304 12.348,-24.304L0,-24.304C-5.182,-24.304 -5.19,-16.251 0,-16.251" style="fill:rgb(230,255,245);fill-rule:nonzero;"/>
        </g>
        <g transform="matrix(1,0,0,1,1202.51,940.319)">
            <path d="M0,8.053L3.149,8.053C5.255,8.053 7.272,6.201 7.175,4.027C7.078,1.845 5.406,0 3.149,0L0,0C-2.106,0 -4.124,1.852 -4.026,4.027C-3.929,6.208 -2.257,8.053 0,8.053" style="fill:rgb(230,255,245);fill-rule:nonzero;"/>
        </g>
        <g transform="matrix(1,0,0,1,1327.44,968.473)">
            <path d="M0,-0.001C0,13.201 -10.702,23.904 -23.904,23.904C-37.106,23.904 -47.809,13.201 -47.809,-0.001C-47.809,-13.203 -37.106,-23.905 -23.904,-23.905C-10.702,-23.905 0,-13.203 0,-0.001" style="fill:rgb(190,206,197);fill-rule:nonzero;"/>
        </g>
        <g transform="matrix(1,0,0,1,1323.41,970.206)">
            <path d="M0,-1.734C-0.302,9.1 -8.811,18.144 -19.878,18.144C-30.744,18.144 -39.722,9.107 -39.756,-1.734C-39.79,-12.575 -30.692,-21.612 -19.878,-21.612C-8.809,-21.612 -0.302,-12.568 0,-1.734C0.145,3.437 8.197,3.458 8.053,-1.734C7.726,-13.47 0.751,-23.907 -10.403,-27.992C-21.291,-31.98 -33.931,-28.506 -41.314,-19.597C-57.662,0.128 -39.961,30.246 -14.8,25.719C-1.463,23.318 7.683,11.543 8.053,-1.734C8.197,-6.918 0.145,-6.914 0,-1.734" style="fill:rgb(27,57,69);fill-rule:nonzero;"/>
        </g>
        <g transform="matrix(1,0,0,1,1315.13,968.472)">
            <path d="M0,0C0,6.401 -5.188,11.59 -11.59,11.59C-17.99,11.59 -23.18,6.401 -23.18,0C-23.18,-6.401 -17.99,-11.59 -11.59,-11.59C-5.188,-11.59 0,-6.401 0,0" style="fill:rgb(208,239,229);fill-rule:nonzero;"/>
        </g>
        <g transform="matrix(1,0,0,1,1313.11,968.799)">
            <path d="M0,-0.327C-0.66,11.936 -19.154,12.047 -19.154,-0.327C-19.154,-12.703 -0.661,-12.597 0,-0.327C0.139,2.251 4.166,2.267 4.026,-0.327C3.629,-7.705 -1.878,-13.93 -9.577,-13.93C-16.949,-13.93 -23.213,-7.722 -23.181,-0.327C-23.148,6.84 -17.381,12.917 -10.209,13.242C-2.265,13.603 3.615,7.31 4.026,-0.327C4.165,-2.916 0.139,-2.909 0,-0.327" style="fill:rgb(27,57,69);fill-rule:nonzero;"/>
        </g>
        <g transform="matrix(1,0,0,1,1302.58,968.578)">
            <path d="M0,-3.235C2.638,-3.164 4.663,-1.139 4.734,1.5C4.804,4.086 8.83,4.096 8.761,1.5C8.63,-3.359 4.858,-7.13 0,-7.261C-2.593,-7.331 -2.591,-3.305 0,-3.235" style="fill:rgb(230,255,245);fill-rule:nonzero;"/>
        </g>
        <g transform="matrix(-0.999708,-0.0241843,-0.0241843,0.999708,1053.36,858.432)">
            <path d="M-33.079,28.088L-0.33,28.088L-7.374,0.213L-26.042,0.213L-33.079,28.088Z" style="fill:rgb(27,57,69);"/>
        </g>
        <g transform="matrix(1,0,0,1,1085.75,861.257)">
            <path d="M0,24.443C-10.913,24.179 -21.826,23.915 -32.739,23.651C-32.221,24.332 -31.703,25.011 -31.186,25.692C-28.613,16.459 -26.041,7.227 -23.469,-2.005C-23.987,-1.611 -24.505,-1.217 -25.023,-0.822C-18.802,-0.672 -12.581,-0.521 -6.36,-0.371C-6.878,-0.765 -7.396,-1.16 -7.915,-1.554L-1.554,26.483C-1.096,28.505 2.013,27.649 1.554,25.626L-4.807,-2.411C-4.965,-3.11 -5.674,-3.578 -6.36,-3.594C-12.581,-3.744 -18.802,-3.895 -25.023,-4.045C-25.729,-4.062 -26.391,-3.532 -26.577,-2.862C-29.149,6.37 -31.721,15.602 -34.293,24.835C-34.58,25.864 -33.778,26.849 -32.739,26.875C-21.826,27.138 -10.913,27.402 0,27.666C2.075,27.716 2.074,24.493 0,24.443" style="fill:rgb(27,57,69);fill-rule:nonzero;"/>
        </g>
        <g transform="matrix(0.999707,0.0242026,0.0242026,-0.999707,1065.73,868.058)">
            <rect x="0.988" y="-0.09" width="6.49" height="81.981" style="fill:rgb(27,57,69);"/>
        </g>
        <g transform="matrix(1,0,0,1,1066.72,785.046)">
            <path d="M0,84.738L6.485,84.895C7.371,84.916 8.076,84.139 8.096,83.283C8.757,55.965 9.417,28.646 10.078,1.327C10.099,0.441 9.321,-0.264 8.466,-0.285C6.304,-0.337 4.143,-0.389 1.981,-0.442C1.095,-0.463 0.391,0.315 0.37,1.17C-0.291,28.489 -0.951,55.808 -1.611,83.127C-1.662,85.201 1.562,85.2 1.611,83.127C2.272,55.808 2.932,28.489 3.593,1.17L1.981,2.781C4.143,2.834 6.304,2.886 8.466,2.938L6.854,1.327C6.194,28.646 5.534,55.965 4.873,83.283C5.41,82.746 5.948,82.209 6.485,81.672L0,81.515C-2.075,81.465 -2.074,84.688 0,84.738" style="fill:rgb(27,57,69);fill-rule:nonzero;"/>
        </g>
        <g transform="matrix(1,0,0,1,1078.87,854.427)">
            <path d="M0,0.212C0.105,-4.147 -3.328,-7.927 -7.861,-8.037C-12.396,-8.146 -16.006,-4.537 -16.111,-0.177C-16.221,4.358 -12.79,8.139 -8.255,8.249C-3.721,8.358 -0.11,4.748 0,0.212" style="fill:rgb(241,90,36);"/>
        </g>
        <g transform="matrix(1,0,0,1,1083.17,854.737)">
            <path d="M0,-0.098C-0.196,-6.767 -5.225,-12.57 -12.158,-12.644C-18.88,-12.715 -24.575,-7.216 -24.706,-0.487C-24.835,6.142 -19.607,11.824 -12.998,12.201C-5.712,12.617 -0.523,6.79 0,-0.098C0.419,-5.615 -8.178,-5.587 -8.595,-0.098C-8.979,4.969 -16.387,4.558 -16.111,-0.487C-15.844,-5.386 -8.736,-4.903 -8.595,-0.098C-8.433,5.421 0.163,5.444 0,-0.098" style="fill:rgb(27,57,69);fill-rule:nonzero;"/>
        </g>
        <g transform="matrix(1,0,0,1,1001,655.841)">
            <path d="M0,140.755L146.92,3.963L347.888,0L273.045,69.691L262.288,43.103C254.373,23.541 206.327,32.471 165.189,49.116C124.059,65.757 83.315,92.751 91.23,112.313L101.987,138.901L0,140.755Z" style="fill:rgb(241,90,36);"/>
        </g>
        <g transform="matrix(1,0,0,1,1003.85,655.277)">
            <path d="M0,144.166L49.762,97.834L128.685,24.352C134.764,18.693 140.842,13.034 146.92,7.374C145.971,7.768 145.022,8.161 144.073,8.554C166.762,8.106 189.452,7.659 212.141,7.211C248.126,6.501 284.112,5.791 320.098,5.082C328.412,4.918 336.726,4.754 345.041,4.59C344.091,2.299 343.142,0.007 342.194,-2.284C320.357,18.05 298.521,38.383 276.684,58.716C273.573,61.613 270.462,64.51 267.351,67.407L274.081,69.184C271.923,63.852 269.766,58.52 267.608,53.187C265.69,48.446 264.149,42.745 261.151,38.532C256.57,32.096 248.485,29.79 241.011,28.928C229.917,27.648 218.478,29.299 207.604,31.499C180.433,36.996 153.77,47.414 129.521,60.768C118.619,66.772 107.926,73.559 98.662,81.921C92.124,87.822 85.232,95.369 83.685,104.371C82.583,110.779 85.402,116.177 87.733,121.937L95.258,140.535C96.552,138.836 97.846,137.137 99.14,135.438C69.384,135.979 39.628,136.52 9.872,137.062C5.632,137.139 1.393,137.215 -2.847,137.292C-8.022,137.387 -8.04,145.44 -2.847,145.345C26.909,144.804 56.666,144.263 86.422,143.722C90.661,143.645 94.901,143.568 99.14,143.491C101.497,143.448 104.04,140.909 103.022,138.394C99.364,129.351 94.887,120.316 91.971,111.009C89.762,103.958 95.125,97.056 99.655,92.207C107.249,84.078 116.634,77.706 126.124,72.008C148.378,58.647 172.916,48.553 198.019,41.994C208.912,39.147 220.118,36.864 231.407,36.591C238.349,36.423 247.34,36.563 252.943,41.371C256.585,44.498 257.945,50.636 259.843,55.328C262,60.661 264.158,65.993 266.315,71.325C267.447,74.12 270.65,75.331 273.045,73.101C294.881,52.768 316.718,32.435 338.554,12.102C341.666,9.205 344.777,6.308 347.887,3.411C350.437,1.037 348.472,-3.53 345.041,-3.463C322.193,-3.012 299.344,-2.562 276.497,-2.111C240.329,-1.397 204.162,-0.684 167.995,0.029C160.247,0.182 152.011,-0.449 144.308,0.496C141.931,0.788 140.823,2.056 139.193,3.572C136.221,6.34 133.248,9.108 130.274,11.876C105.081,35.333 79.887,58.791 54.693,82.248C34.942,100.638 14.589,118.558 -4.643,137.493C-4.983,137.829 -5.344,138.146 -5.694,138.472C-9.495,142.011 -3.791,147.696 0,144.166" style="fill:rgb(27,57,69);fill-rule:nonzero;"/>
        </g>
        <g transform="matrix(1,0,0,1,1173.14,715.805)">
            <path d="M0,56.052C6.403,53.171 13.221,49.829 20.491,46.888C28.031,43.837 35.254,41.498 41.59,39.224C66.898,30.738 97.897,22.87 117.361,24.627L98.487,-22.024C90.368,-42.089 39.564,-32.333 -4.37,-14.557C-48.034,3.109 -91.328,31.425 -83.209,51.49L-64.335,98.141C-51.566,83.343 -24.079,67.547 0,56.052" style="fill:rgb(251,176,59);"/>
        </g>
        <g transform="matrix(1,0,0,1,1175.17,720.801)">
            <path d="M0,54.533C19.302,45.79 38.76,38.168 59.166,32.355C77.125,27.24 96.495,22.164 115.329,23.658C117.744,23.849 120.157,20.897 119.211,18.561C113.375,4.136 107.539,-10.29 101.702,-24.715C99.091,-31.167 95.962,-36.107 89.227,-38.997C77.644,-43.967 63.733,-42.431 51.643,-40.596C16.895,-35.324 -17.963,-21.415 -48.159,-3.657C-60.909,3.841 -74.174,12.57 -83.313,24.421C-88.562,31.226 -92.13,39.563 -88.932,48.042C-83.076,63.563 -76.472,78.837 -70.25,94.216C-69.209,96.787 -65.732,98.5 -63.52,95.992C-46.975,77.238 -22.188,65.177 0,54.533C4.671,52.292 0.591,45.346 -4.064,47.579C-26.861,58.515 -52.211,71.025 -69.214,90.299C-66.971,90.891 -64.728,91.483 -62.484,92.075C-67.973,78.511 -73.46,64.947 -78.949,51.383C-81.029,46.241 -83.347,41.851 -81.116,36.225C-76.603,24.848 -64.246,16.331 -54.515,9.819C-26.633,-8.84 5.928,-22.171 38.532,-29.842C51.465,-32.886 65.742,-35.7 79.049,-33.551C85.965,-32.434 91.06,-29.685 93.466,-23.738C99.459,-8.925 105.453,5.888 111.447,20.701C112.741,19.003 114.035,17.304 115.329,15.605C95.841,14.06 75.605,19.298 57.024,24.591C35.943,30.596 15.874,38.549 -4.064,47.579C-8.778,49.715 -4.689,56.657 0,54.533" style="fill:rgb(27,57,69);fill-rule:nonzero;"/>
        </g>
    </g>
</svg>
